<svg width="2890" height="1155" xmlns="http://www.w3.org/2000/svg" xmlns:xlink="http://www.w3.org/1999/xlink" xml:space="preserve" overflow="hidden"><defs><clipPath id="clip0"><rect x="798" y="660" width="2890" height="1155"/></clipPath></defs><g clip-path="url(#clip0)" transform="translate(-798 -660)"><path d="M798 852.503C798 746.186 884.186 660 990.502 660L3409.5 660C3515.81 660 3602 746.186 3602 852.503L3602 1622.5C3602 1728.81 3515.81 1815 3409.5 1815L990.502 1815C884.186 1815 798 1728.81 798 1622.5Z" fill="#20232B" fill-rule="evenodd"/><path d="M1588.54 871.038 1161.54 871.038C1077.36 871.038 1009.04 939.452 1009.04 1023.75L1009.04 1451.33C1009.04 1535.62 1077.36 1604.04 1161.54 1604.04L1507.41 1604.04C1548.28 1604.04 1586.4 1588.16 1615.38 1559.45L1696.51 1478.21C1725.18 1449.5 1741.04 1411.01 1741.04 1370.09L1741.04 1023.75C1741.04 939.452 1672.72 871.038 1588.54 871.038ZM1161.54 1542.95C1111.21 1542.95 1070.04 1501.72 1070.04 1451.33L1070.04 1023.75C1070.04 973.353 1111.21 932.122 1161.54 932.122L1588.54 932.122C1638.86 932.122 1680.04 973.353 1680.04 1023.75L1680.04 1329.16 1558.04 1329.16C1507.71 1329.16 1466.54 1370.39 1466.54 1420.79L1466.54 1542.95 1161.54 1542.95ZM1572.07 1516.08C1559.87 1528.29 1544.31 1536.85 1527.54 1540.51L1527.54 1420.48C1527.54 1403.68 1541.26 1389.94 1558.04 1389.94L1677.9 1389.94C1674.24 1406.74 1665.7 1422.32 1653.5 1434.53L1572.37 1515.77Z" fill="#FFBF00" fill-rule="evenodd"/><text fill="#FFFFFF" font-family="Public Sans SemiBold,Public Sans SemiBold_MSFontService,sans-serif" font-weight="600" font-size="403" transform="matrix(1 0 0 1 1984.85 1384)">Sticker</text><text fill="#FFFFFF" font-family="Public Sans SemiBold,Public Sans SemiBold_MSFontService,sans-serif" font-weight="600" font-size="403" transform="matrix(1 0 0 1 3351.26 1384)"> </text></g></svg>