<svg width="1243" height="1243" xmlns="http://www.w3.org/2000/svg" xmlns:xlink="http://www.w3.org/1999/xlink" xml:space="preserve" overflow="hidden"><defs><clipPath id="clip0"><rect x="1579" y="616" width="1243" height="1243"/></clipPath></defs><g clip-path="url(#clip0)" transform="translate(-1579 -616)"><path d="M1579 790.17C1579 693.978 1656.98 616 1753.17 616L2647.83 616C2744.02 616 2822 693.978 2822 790.17L2822 1684.83C2822 1781.02 2744.02 1859 2647.83 1859L1753.17 1859C1656.98 1859 1579 1781.02 1579 1684.83Z" fill="#20232B" fill-rule="evenodd"/><g><g><g><path d="M623.833 0 164.167 0C73.5467 0 0 73.5467 0 164.167L0 623.833C0 714.453 73.5467 788 164.167 788L536.497 788C580.493 788 621.535 770.927 652.727 740.063L740.063 652.727C770.927 621.863 788 580.493 788 536.497L788 164.167C788 73.5467 714.453 0 623.833 0ZM164.167 722.333C109.992 722.333 65.6667 678.008 65.6667 623.833L65.6667 164.167C65.6667 109.992 109.992 65.6667 164.167 65.6667L623.833 65.6667C678.008 65.6667 722.333 109.992 722.333 164.167L722.333 492.5 591 492.5C536.825 492.5 492.5 536.825 492.5 591L492.5 722.333 164.167 722.333ZM606.103 693.44C592.97 706.573 576.225 715.767 558.167 719.707L558.167 590.672C558.167 572.613 572.942 557.838 591 557.838L720.035 557.838C716.095 575.897 706.902 592.642 693.768 605.775L606.432 693.112Z" fill="#FFBF00" transform="matrix(1 0 0 1.00127 1806 843)"/></g></g></g></g></svg>